HIERARCHY
ROOT root
{
	OFFSET	0	13.1	24.9
	CHANNELS 6  Xposition Yposition Zposition Xrotation Yrotation Zrotation
	JOINT spine_1
	{
		OFFSET	0	9.99999	0
		CHANNELS 3  Xrotation Yrotation Zrotation
		JOINT spine_2
		{
			OFFSET	0	112	-10
			CHANNELS 3  Xrotation Yrotation Zrotation
			JOINT spine_3
			{
				OFFSET	0	206.5	19.3
				CHANNELS 3  Xrotation Yrotation Zrotation
				JOINT spine_4
				{
					OFFSET	0	110.4	14.6
					CHANNELS 3  Xrotation Yrotation Zrotation
					JOINT neck_1
					{
						OFFSET	0	71.8	-50.3
						CHANNELS 3  Xrotation Yrotation Zrotation
						JOINT neck_2
						{
							OFFSET	0	86.2	-25.8
							CHANNELS 3  Xrotation Yrotation Zrotation
							JOINT head_ee
							{
								OFFSET	0	179.8	-8.7
								CHANNELS 3  Xrotation Yrotation Zrotation
								End Site
								{
									OFFSET	1	0	0
								}
							}
						}
					}
					JOINT left_clavicle
					{
						OFFSET	-43.2	22.4	-70.8
						CHANNELS 3  Xrotation Yrotation Zrotation
						JOINT left_shoulder
						{
							OFFSET	-93.9	-5.79999	48.7
							CHANNELS 3  Xrotation Yrotation Zrotation
							JOINT left_elbow
							{
								OFFSET	-291.4	-30.8	15.2
								CHANNELS 3  Xrotation Yrotation Zrotation
								JOINT left_lowarm_twist
								{
									OFFSET	-110.7	-3.89999	13.6
									CHANNELS 3  Xrotation Yrotation Zrotation
									JOINT left_hand
									{
										OFFSET	-110.7	-3.89999	13.6
										CHANNELS 3  Xrotation Yrotation Zrotation
										JOINT left_ee
										{
											OFFSET	-80.8	-5.10001	12.1
											CHANNELS 3  Xrotation Yrotation Zrotation
											End Site
											{
												OFFSET	1	0	0
											}
										}
									}
								}
							}
						}
					}
					JOINT right_clavicle
					{
						OFFSET	43.2	22.4	-70.8
						CHANNELS 3  Xrotation Yrotation Zrotation
						JOINT right_shoulder
						{
							OFFSET	93.9	-5.79999	48.7
							CHANNELS 3  Xrotation Yrotation Zrotation
							JOINT right_elbow
							{
								OFFSET	291.4	-30.8	15.2
								CHANNELS 3  Xrotation Yrotation Zrotation
								JOINT right_lowarm_twist
								{
									OFFSET	110.7	-3.89999	13.6
									CHANNELS 3  Xrotation Yrotation Zrotation
									JOINT right_hand
									{
										OFFSET	110.7	-3.89999	13.6
										CHANNELS 3  Xrotation Yrotation Zrotation
										JOINT right_ee
										{
											OFFSET	80.8	-5.10001	12.1
											CHANNELS 3  Xrotation Yrotation Zrotation
											End Site
											{
												OFFSET	1	0	0
											}
										}
									}
								}
							}
						}
					}
				}
			}
		}
	}
	JOINT left_hip
	{
		OFFSET	-82.8	-127.5	0.300001
		CHANNELS 3  Xrotation Yrotation Zrotation
		JOINT left_knee
		{
			OFFSET	-28.2	-396.7	2.2
			CHANNELS 3  Xrotation Yrotation Zrotation
			JOINT left_ankle
			{
				OFFSET	-11.7	-411.3	35.4
				CHANNELS 3  Xrotation Yrotation Zrotation
				JOINT left_toes
				{
					OFFSET	0	-60	-88.6
					CHANNELS 3  Xrotation Yrotation Zrotation
					JOINT left_foot_ee
					{
						OFFSET	-22.5	-16.5	-42.2
						CHANNELS 3  Xrotation Yrotation Zrotation
						End Site
						{
							OFFSET	1	0	0
						}
					}
				}
			}
		}
	}
	JOINT right_hip
	{
		OFFSET	82.8	-127.5	0.300001
		CHANNELS 3  Xrotation Yrotation Zrotation
		JOINT right_knee
		{
			OFFSET	28.2	-396.7	2.2
			CHANNELS 3  Xrotation Yrotation Zrotation
			JOINT right_ankle
			{
				OFFSET	11.7	-411.3	35.4
				CHANNELS 3  Xrotation Yrotation Zrotation
				JOINT right_toes
				{
					OFFSET	0	-60	-88.6
					CHANNELS 3  Xrotation Yrotation Zrotation
					JOINT right_foot_ee
					{
						OFFSET	22.5	-16.5	-42.2
						CHANNELS 3  Xrotation Yrotation Zrotation
						End Site
						{
							OFFSET	1	0	0
						}
					}
				}
			}
		}
	}
}
MOTION
Frames: 14
Frame Time: 0.02
3489.87178901 719.965 -1538.48205109 15.6787251262 83.4060350838 -12.0845495262 0.268988 0.111895 -1.76019 0.270684 0.223657 -1.74951 0.264305 0.578881 -1.66606 0.260564 0.308535 -1.73655 -9.83211 -1.86062 -1.72026 -9.82582 -2.33193 -2.1364 -0.0 0.0 -0.0 4.17904 -5.83724 7.74932 -29.3041 -12.9135 69.6158 1.38845 -34.5181 0.431384 18.4637 0.276941 -2.33213 1.11644 3.2241 8.77083 -0.0 0.0 -0.0 3.01676 10.6994 -5.00516 -10.7736 16.5856 -61.7515 1.39412 34.6273 -0.434604 9.72697 -0.239826 1.2179 1.14197 -16.7774 -13.9518 0.0 0.0 0.0 22.9342 -26.9114 -0.987888 -32.5351 -0.0613561 4.92616 19.1015 12.3837 -2.62942 26.5132 -0.0 -0.0 -0.0 0.0 -0.0 -14.4611 -34.3941 -9.76161 1.57511 0.0680593 0.232113 13.4482 27.0437 2.29465 2.65985 -0.0 -0.0 0.0 0.0 0.0 
3492.12029717 719.965 -1541.35944479 12.1006125347 81.4868623904 -8.47564231495 0.268988 0.111895 -1.76019 0.270684 0.223657 -1.74951 0.264305 0.578881 -1.66606 0.260564 0.308535 -1.73655 -9.83211 -1.86062 -1.72026 -9.82582 -2.33193 -2.1364 -0.0 0.0 -0.0 4.17904 -5.83724 7.74932 -29.3041 -12.9135 69.6158 1.38845 -34.5181 0.431384 18.4637 0.276941 -2.33213 1.11644 3.2241 8.77083 -0.0 0.0 -0.0 3.01676 10.6994 -5.00516 -10.7736 16.5856 -61.7515 1.39412 34.6273 -0.434604 9.72697 -0.239826 1.2179 1.14197 -16.7774 -13.9518 0.0 0.0 0.0 22.9342 -26.9114 -0.987888 -32.5351 -0.0613561 4.92616 19.1015 12.3837 -2.62942 26.5132 -0.0 -0.0 -0.0 0.0 -0.0 -14.4611 -34.3941 -9.76161 1.57511 0.0680593 0.232113 13.4482 27.0437 2.29465 2.65985 -0.0 -0.0 0.0 0.0 0.0 
3493.31055277 719.965 -1542.80335434 10.8311011285 80.4944839533 -7.19032264995 0.268988 0.111895 -1.76019 0.270684 0.223657 -1.74951 0.264305 0.578881 -1.66606 0.260564 0.308535 -1.73655 -9.83211 -1.86062 -1.72026 -9.82582 -2.33193 -2.1364 -0.0 0.0 -0.0 4.17904 -5.83724 7.74932 -29.3041 -12.9135 69.6158 1.38845 -34.5181 0.431384 18.4637 0.276941 -2.33213 1.11644 3.2241 8.77083 -0.0 0.0 -0.0 3.01676 10.6994 -5.00516 -10.7736 16.5856 -61.7515 1.39412 34.6273 -0.434604 9.72697 -0.239826 1.2179 1.14197 -16.7774 -13.9518 0.0 0.0 0.0 22.9342 -26.9114 -0.987888 -32.5351 -0.0613561 4.92616 19.1015 12.3837 -2.62942 26.5132 -0.0 -0.0 -0.0 0.0 -0.0 -14.4611 -34.3941 -9.76161 1.57511 0.0680593 0.232113 13.4482 27.0437 2.29465 2.65985 -0.0 -0.0 0.0 0.0 0.0 
3487.81195343 719.5 -1544.59926913 17.6248164456 82.423330507 -14.1114546771 -0.0133125 -0.00543843 -1.68784 -0.0117332 0.101959 -1.68477 -0.0141128 0.454316 -1.62557 -0.0177494 0.191924 -1.67691 -10.2437 -1.61744 -1.26214 -10.2412 -2.19872 -1.63625 -0.0 0.0 -0.0 3.93979 -5.502 7.28539 -30.1148 -12.9408 70.1435 1.38021 -34.3591 0.426725 18.4298 0.277126 -2.3278 1.05302 3.21095 8.34116 -0.0 0.0 -0.0 3.21429 11.1756 -5.3769 -9.27382 16.8334 -61.5114 1.37441 34.2469 -0.423459 9.67921 -0.239156 1.21183 1.02259 -16.8114 -13.2097 0.0 0.0 0.0 24.168 -27.3915 -1.2509 -32.9485 -0.0801178 4.98682 18.8662 12.0917 -2.59853 26.6526 -0.0 -0.0 -0.0 0.0 -0.0 -15.9347 -34.2074 -10.0813 1.75871 0.0764078 0.259047 12.8292 27.3215 2.20285 2.19559 -0.0 -0.0 0.0 0.0 0.0 
3475.99742095 726.114 -1543.30130547 20.9673000796 84.6758715043 -17.4884872349 0.0567676 -0.0677906 -1.6973 0.0583696 0.0403347 -1.69818 0.05783 0.394798 -1.65215 0.0540436 0.128956 -1.69375 -10.4777 -1.38779 -0.77249 -10.4778 -2.10049 -1.10577 -0.0 0.0 -0.0 3.6393 -4.79202 6.72525 -32.1059 -12.8337 70.7175 1.34784 -33.7285 0.408604 18.4063 0.277252 -2.3248 1.02063 3.21895 8.12773 -0.0 0.0 -0.0 3.49705 11.9571 -5.90398 -6.53997 17.0359 -61.0161 1.3622 34.0095 -0.416609 9.65982 -0.238883 1.20937 0.914055 -16.7232 -12.4959 0.0 0.0 0.0 23.861 -27.1728 -2.02256 -33.6973 -0.115212 5.09633 18.8248 11.6713 -2.59175 26.7715 -0.0 -0.0 -0.0 0.0 -0.0 -16.4741 -34.2254 -9.46992 2.52435 0.112153 0.371081 12.2671 27.5101 2.11674 1.78041 -0.0 -0.0 0.0 0.0 0.0 
3466.16154911 723.486 -1540.18822492 28.7334697852 86.3881440814 -25.044925108 0.100328 -0.120512 -1.8165 0.102164 -0.00469906 -1.82048 0.10309 0.374944 -1.78147 0.0986714 0.0889365 -1.81832 -10.6316 -1.25606 -0.219452 -10.6333 -2.22374 -0.537719 -0.0 0.0 -0.0 3.45132 -4.26126 6.38358 -33.5032 -12.9139 71.4473 1.32555 -33.2888 0.396297 18.2608 0.278008 -2.30623 0.982934 3.5376 8.00254 -0.0 0.0 -0.0 3.72874 12.3852 -6.35557 -4.6345 17.1152 -60.7432 1.35388 33.847 -0.411964 10.0295 -0.243949 1.25632 0.838404 -16.6547 -11.9968 0.0 0.0 0.0 25.5434 -26.9206 -1.81129 -32.9008 -0.077929 4.97982 17.2418 11.515 -2.38939 26.161 -0.0 -0.0 -0.0 0.0 -0.0 -17.0907 -34.1976 -9.20179 2.49622 0.110814 0.366973 11.7147 28.6912 2.05691 1.10737 -0.0 -0.0 0.0 0.0 0.0 
3448.85289402 723.041 -1537.48073223 59.9664701822 87.4408262191 -56.1376511008 0.131635 -0.125056 -1.89764 0.133638 -0.00407299 -1.90175 0.134603 0.391488 -1.86104 0.129782 0.0927131 -1.8995 -10.7863 -1.15719 0.165427 -10.7883 -2.2944 -0.141757 -0.0 0.0 -0.0 3.17652 -3.72239 5.87212 -34.9527 -12.897 72.0486 1.30023 -32.7838 0.382493 18.1584 0.278511 -2.29317 0.952094 3.798 7.90018 -0.0 0.0 -0.0 3.91329 12.7998 -6.71078 -2.87441 17.2949 -60.4668 1.35691 33.9061 -0.413651 10.3068 -0.247551 1.29156 0.789844 -16.5494 -11.6548 0.0 0.0 0.0 26.8798 -26.5183 -1.12314 -32.3579 -0.0534467 4.90012 16.0031 11.3526 -2.22861 25.7165 -0.0 -0.0 -0.0 0.0 -0.0 -17.8613 -34.1338 -9.69443 2.46765 0.109455 0.3628 11.3195 29.5708 2.01415 0.63419 -0.0 -0.0 0.0 0.0 0.0 
3441.11886505 714.309 -1536.7355338 67.455668423 87.7846881915 -64.1164385233 0.29906 -0.053613 -1.6627 0.300597 0.0522828 -1.66274 0.299607 0.392247 -1.61667 0.295984 0.132038 -1.65832 -10.9069 -1.15284 0.345075 -10.9089 -2.40571 0.0309744 -0.0 0.0 -0.0 2.81668 -2.9484 5.21404 -36.9468 -12.7139 72.7777 1.24727 -31.7089 0.354234 18.0007 0.279241 -2.27303 0.919062 4.16372 7.82517 -0.0 0.0 -0.0 3.62407 13.309 -6.06024 -0.555629 17.6481 -59.8373 1.39266 34.5992 -0.433774 10.7476 -0.252923 1.34761 0.787872 -15.9371 -11.4238 0.0 0.0 0.0 27.8881 -26.7884 -0.217458 -31.9368 -0.0349778 4.83814 14.7704 11.1629 -2.0666 25.3312 -0.0 -0.0 -0.0 0.0 -0.0 -18.4133 -34.0634 -10.4456 2.68276 0.119736 0.394201 11.0465 30.2381 1.98578 0.304462 -0.0 -0.0 0.0 0.0 0.0 
3421.91638753 705.073 -1534.40349482 94.7926131274 87.7933764058 -91.3909535987 0.394931 0.060816 -1.71289 0.396547 0.169672 -1.70555 0.39192 0.513337 -1.63531 0.388274 0.248668 -1.69584 -12.771 -0.785885 1.47903 -12.7683 -2.42755 1.18419 -0.0 0.0 -0.0 2.53937 -1.79777 4.75567 -38.9352 -12.3409 73.8147 1.14712 -29.6064 0.30316 17.8888 0.279726 -2.25875 0.708594 5.78912 7.07383 -0.0 0.0 -0.0 3.54231 13.7542 -5.8506 1.37167 18.0174 -59.5212 1.43053 35.321 -0.455476 12.0769 -0.266513 1.51685 1.27505 -7.3434 -11.4239 0.0 0.0 0.0 30.0073 -27.3209 0.218929 -28.1096 0.111818 4.26924 3.06881 11.2197 -0.446196 24.1891 -0.0 -0.0 -0.0 0.0 -0.0 -20.439 -33.2952 -10.3706 3.05852 0.13798 0.448962 12.9235 30.849 2.32224 0.322147 -0.0 -0.0 0.0 0.0 0.0 
3416.4575208 709.096 -1533.65609748 125.488756993 88.6997354529 -121.803735559 0.590261 0.11841 -1.85868 0.592152 0.236422 -1.84739 0.584897 0.601684 -1.76261 0.5807 0.315811 -1.83549 -13.959 -0.57033 2.27156 -13.949 -2.47733 1.97943 -0.0 0.0 -0.0 2.37942 -1.27574 4.48398 -40.3091 -12.1503 74.4007 1.08014 -28.1491 0.27081 17.8195 0.280011 -2.2499 0.560007 6.94315 6.55338 -0.0 0.0 -0.0 3.61972 14.1332 -5.98236 2.88312 18.3508 -59.4205 1.47224 36.1012 -0.479823 13.0316 -0.273849 1.63857 1.63617 -1.21274 -11.4815 0.0 0.0 0.0 31.3218 -27.6867 0.545405 -25.4513 0.191247 3.86905 -5.12758 11.0876 0.759258 23.3749 -0.0 -0.0 -0.0 0.0 -0.0 -21.0926 -32.8071 -10.3358 3.66138 0.168 0.536572 14.257 31.2823 2.56041 0.338307 -0.0 -0.0 0.0 0.0 0.0 
3385.03362943 710.438 -1519.38110798 -164.092911516 85.1764795709 166.864002246 1.63626 -0.210403 -1.35084 1.63727 -0.124027 -1.36149 1.6403 0.125993 -1.36131 1.63772 -0.090561 -1.36413 -11.622 -0.410559 3.47801 -11.5916 -3.0393 3.24004 -0.0 0.0 -0.0 2.28656 -0.889331 4.3341 -43.5286 -12.0597 76.0581 0.938555 -24.9349 0.207517 18.7416 0.275331 -2.36759 0.194061 10.9804 5.77997 -0.0 0.0 -0.0 3.69428 14.7036 -6.09219 5.50631 18.9684 -58.7482 1.65209 39.2937 -0.589842 16.4219 -0.283493 2.07143 2.93849 15.6034 -13.1602 0.0 0.0 0.0 30.8896 -29.8898 -2.05041 -17.5055 0.316992 2.65724 -17.158 12.832 2.58259 21.7839 -0.0 -0.0 -0.0 0.0 -0.0 -17.6736 -32.1934 -10.1722 4.33514 0.202641 0.634112 13.3149 30.1865 2.36647 -2.58571 0.0 0.0 0.0 0.0 0.0 
3366.30551627 709.053 -1513.80719877 -150.063523779 83.688140884 152.900820064 1.83358 -0.251961 -1.33721 1.83456 -0.166369 -1.35053 1.83853 0.0776498 -1.35852 1.83598 -0.137857 -1.35373 -11.2929 -0.593037 3.69952 -11.2589 -3.54731 3.4151 -0.0 0.0 -0.0 2.2159 -0.659172 4.21554 -45.2625 -12.0319 76.5127 0.895684 -23.9264 0.189786 18.8854 0.274431 -2.38593 0.131663 11.7145 5.67258 -0.0 0.0 -0.0 3.75399 14.8388 -6.20746 6.58096 19.2112 -58.4843 1.75672 41.027 -0.657326 17.2595 -0.281929 2.1784 3.2602 19.32 -13.5307 0.0 0.0 0.0 30.1858 -30.3655 -2.67231 -15.0564 0.321756 2.28154 -18.9565 13.0922 2.857 21.5008 -0.0 -0.0 -0.0 0.0 -0.0 -16.8216 -32.1218 -9.94933 4.59259 0.216181 0.671277 13.1903 29.3906 2.32099 -3.29465 0.0 0.0 0.0 0.0 0.0 
3345.4620234 698.908 -1514.30725045 -138.921822998 82.9121680193 141.806270467 2.27832 -0.344646 -1.32727 2.27926 -0.259498 -1.3465 2.28531 -0.0254199 -1.37104 2.28277 -0.241611 -1.34983 -8.86872 0.0660257 3.54045 -8.83307 -2.33397 3.49943 -0.0 0.0 -0.0 2.16946 -0.769185 4.11648 -48.261 -12.2868 76.9092 0.818488 -22.0702 0.159621 18.9141 0.274246 -2.38959 0.254368 13.7603 7.25214 -0.0 0.0 -0.0 3.78662 14.9786 -6.26493 8.05212 19.0259 -57.4069 2.02349 45.0628 -0.83953 19.5659 -0.269545 2.47271 3.45585 24.3838 -12.2163 0.0 0.0 0.0 31.0781 -31.8297 -2.87345 -3.08361 0.114624 0.459298 -20.4598 16.8461 3.10761 19.1192 -0.0 -0.0 -0.0 0.0 -0.0 -17.9217 -31.8867 -9.80255 5.13112 0.245045 0.748824 13.6293 29.2029 2.38726 -4.16965 0.0 0.0 0.0 0.0 0.0 
3331.42814642 693.341 -1513.42777633 -140.670107011 83.1511684723 143.525518137 2.38822 -0.388648 -1.31813 2.38914 -0.303993 -1.34018 2.39618 -0.0730098 -1.37228 2.39367 -0.2888 -1.34354 -8.13644 0.370824 3.45438 -8.10202 -1.74457 3.50149 -0.0 0.0 -0.0 2.1928 -1.4608 4.10493 -48.5033 -12.4895 76.9007 0.802848 -21.688 0.153793 18.9207 0.274203 -2.39043 0.327646 14.3584 7.94367 -0.0 0.0 -0.0 4.04792 14.9773 -6.82006 8.70795 18.6924 -57.4728 2.11754 46.3632 -0.906858 20.4204 -0.26195 2.58159 3.50355 25.8719 -11.7319 0.0 0.0 0.0 31.2934 -32.2522 -2.65033 0.428234 -0.0178707 -0.0632856 -20.5654 18.2399 3.13561 18.4261 -0.0 -0.0 -0.0 0.0 -0.0 -18.3498 -31.7896 -9.84491 5.25447 0.25176 0.766549 13.7855 29.4213 2.41968 -4.4244 0.0 0.0 0.0 0.0 0.0 
